<?xml version="1.0" encoding="UTF-8" standalone="no"?>
<!-- Created with Inkscape (http://www.inkscape.org/) -->

<svg
   xmlns:svg="http://www.w3.org/2000/svg"
   xmlns="http://www.w3.org/2000/svg"
   width="64"
   height="64"
   viewBox="5.5 -3.5 64 64"
   id="Layer_1"
   xml:space="preserve"><defs
   id="defs2935" />
<g
   id="g2925">
	<circle
   cx="37.471001"
   cy="28.424"
   r="28.552999"
   id="circle2927"
   style="fill:#ffffff" />
	<g
   id="g2929">
		<path
   d="m 37.443,-3.5 c 8.988,0 16.58,3.096 22.77,9.286 6.191,6.19 9.287,13.761 9.287,22.714 0,8.954 -3.049,16.437 -9.145,22.456 C 53.918,57.319 46.279,60.5 37.443,60.5 28.756,60.5 21.261,57.356 14.957,51.07 8.651,44.784 5.5,37.262 5.5,28.5 5.5,19.739 8.644,12.158 14.929,5.758 21.101,-0.415 28.604,-3.5 37.443,-3.5 z m 0.086,5.772 c -7.257,0 -13.401,2.553 -18.428,7.657 -5.22,5.296 -7.829,11.486 -7.829,18.572 0,7.086 2.59,13.22 7.771,18.398 5.181,5.182 11.352,7.771 18.514,7.771 7.162,0 13.371,-2.607 18.629,-7.828 5.029,-4.877 7.543,-10.991 7.543,-18.343 0,-7.314 -2.553,-13.504 -7.656,-18.571 C 50.967,4.824 44.785,2.272 37.529,2.272 z M 22.471,37.186 V 19.472 h 8.8 c 4.342,0 6.514,1.999 6.514,6 0,0.686 -0.105,1.342 -0.314,1.972 -0.209,0.629 -0.572,1.256 -1.086,1.886 -0.514,0.629 -1.285,1.143 -2.314,1.543 -1.028,0.399 -2.247,0.6 -3.656,0.6 h -3.486 v 5.714 h -4.458 z m 4.4,-14.401 v 5.372 h 3.771 c 0.914,0 1.6,-0.258 2.058,-0.772 0.458,-0.513 0.687,-1.152 0.687,-1.915 0,-1.79 -0.953,-2.686 -2.858,-2.686 h -3.657 v 0.001 z M 38.984,37.186 V 19.472 h 6.859 c 2.818,0 5.027,0.724 6.629,2.171 1.598,1.448 2.398,3.677 2.398,6.686 0,3.01 -0.801,5.24 -2.398,6.686 -1.602,1.447 -3.811,2.171 -6.629,2.171 h -6.859 z m 4.403,-14 v 10.287 h 2.57 c 1.562,0 2.695,-0.466 3.4,-1.401 0.705,-0.933 1.057,-2.179 1.057,-3.742 0,-1.562 -0.352,-2.809 -1.057,-3.743 C 48.652,23.654 47.5,23.188 45.9,23.188 l -2.513,-0.002 0,0 z"
   id="path2931" />
	</g>
</g>
</svg>
